<svg xmlns="http://www.w3.org/2000/svg" viewBox="0 0 607 429" preserveAspectRatio="xMidYMid meet" role="img" aria-label="klo">
<g fill="currentColor" transform="translate(0,429) scale(0.1,-0.1)">
<path d="M2713 4239 c6 -46 3 -59 -22 -103 -62 -109 -69 -211 -21 -306 l30
-59 -20 -98 c-11 -54 -28 -122 -37 -150 l-17 -53 44 -51 c36 -43 44 -60 48
-103 4 -49 2 -52 -42 -96 -25 -24 -46 -49 -46 -54 0 -6 21 -32 47 -58 l46 -47
-18 -48 c-10 -26 -31 -69 -47 -94 -15 -25 -28 -52 -28 -59 0 -6 19 -33 42 -58
l41 -47 -1 -102 c-2 -121 -22 -183 -80 -256 -38 -48 -39 -50 -30 -100 6 -29
13 -54 17 -57 4 -3 35 -27 69 -53 l62 -49 -32 -41 c-18 -23 -54 -66 -81 -96
l-48 -54 52 -53 52 -53 -41 -49 c-23 -27 -51 -71 -62 -97 l-21 -49 31 -48 c16
-27 30 -55 30 -61 0 -7 -11 -31 -24 -54 l-24 -41 29 -51 29 -50 -20 -51 c-11
-28 -20 -74 -20 -103 0 -31 -9 -70 -21 -97 l-20 -45 27 -52 28 -51 -16 -52
-17 -52 31 -49 c29 -47 29 -51 18 -100 -7 -29 -9 -72 -6 -102 9 -69 -8 -140
-45 -199 l-30 -47 23 -43 c12 -24 25 -69 28 -103 5 -55 7 -60 30 -61 45 -2
285 -6 292 -5 4 0 -8 45 -27 100 l-33 98 31 49 c19 30 30 61 29 79 -1 17 -2
75 -1 130 1 109 0 154 -3 260 -1 62 3 82 40 171 47 113 48 116 28 173 -13 36
-13 46 1 87 18 53 12 82 -38 193 l-29 65 26 27 c21 22 24 30 15 47 -6 11 -9
27 -6 35 4 9 -15 26 -55 51 -33 20 -60 39 -60 41 0 2 27 24 59 49 32 25 76 68
96 96 35 47 37 54 31 100 -4 27 -13 68 -21 91 -9 24 -15 77 -15 128 0 47 -5
121 -12 163 -11 76 -11 79 15 127 54 98 30 181 -85 310 l-49 53 66 42 c36 22
63 45 61 51 -2 5 1 18 6 28 6 11 3 33 -7 62 -18 54 -19 115 -4 183 10 39 9 57
-3 93 l-15 44 45 53 c51 59 51 58 -29 119 l-50 38 23 20 c13 11 41 34 62 52
l39 32 -42 50 -43 51 30 53 c42 75 61 145 50 182 -5 17 -11 83 -13 148 -2 65
-5 120 -7 123 -3 2 -76 7 -163 10 l-158 6 6 -53z"/>
<path d="M146 4123 c4 -16 9 -66 9 -113 1 -64 6 -96 22 -130 12 -25 24 -66 28
-92 6 -42 4 -51 -24 -92 l-32 -45 26 -51 c26 -50 26 -52 11 -105 -14 -47 -14
-57 -1 -95 19 -53 19 -162 1 -198 -18 -36 -18 -78 1 -130 23 -62 13 -211 -18
-275 -22 -46 -23 -48 -6 -99 16 -51 16 -53 -4 -74 -16 -18 -19 -29 -14 -54 5
-22 1 -45 -10 -71 -15 -33 -16 -46 -7 -91 30 -138 17 -233 -41 -317 l-31 -45
58 -52 57 -52 -14 -49 c-8 -27 -26 -72 -40 -100 -24 -47 -25 -53 -13 -99 12
-46 11 -52 -12 -101 l-25 -51 21 -53 c13 -29 22 -73 22 -101 0 -41 -6 -57 -35
-95 -19 -25 -35 -49 -35 -52 0 -4 16 -23 36 -42 20 -18 40 -42 45 -51 14 -25
-8 -105 -43 -155 -15 -23 -28 -47 -28 -53 0 -6 16 -32 36 -58 32 -43 35 -52
31 -95 -4 -29 -18 -68 -37 -99 l-32 -51 9 -99 c5 -58 5 -105 0 -115 -6 -10 -4
-27 7 -50 15 -31 15 -36 0 -64 -8 -17 -13 -41 -10 -53 4 -15 -4 -38 -23 -68
l-29 -45 52 -6 c28 -3 105 -6 171 -7 l120 -1 55 49 55 49 -28 59 c-15 33 -38
100 -51 150 l-23 91 39 99 40 99 -22 50 c-25 57 -27 123 -5 203 11 44 11 60 0
103 -16 58 -8 87 47 192 26 49 33 73 33 119 0 48 3 58 17 58 9 0 20 -10 23
-22 4 -13 20 -57 36 -99 l30 -77 64 -12 c35 -7 68 -17 73 -24 5 -6 17 -35 27
-64 19 -59 19 -59 138 -93 l78 -22 29 -56 c36 -72 89 -122 148 -142 l47 -16
10 -64 11 -64 71 -3 c79 -3 83 -7 83 -89 0 -41 2 -43 87 -107 53 -40 109 -73
142 -83 40 -13 56 -24 63 -43 9 -27 88 -77 192 -121 l60 -25 11 -61 c12 -67
37 -97 111 -132 85 -41 82 -42 179 64 l88 95 -17 64 c-13 47 -27 73 -54 99
-34 33 -43 36 -102 39 l-64 3 -8 40 c-17 88 -12 82 -80 89 -35 4 -84 16 -110
28 -49 22 -54 31 -48 95 0 12 -8 40 -20 62 -17 33 -26 41 -50 42 -17 1 -36 2
-42 3 -7 0 -14 12 -16 26 -8 67 -23 90 -73 116 -50 25 -50 25 -130 9 -45 -8
-83 -15 -85 -15 -3 0 -1 36 2 79 l7 79 -50 26 c-43 21 -53 32 -72 79 -19 47
-29 57 -69 76 -28 13 -61 40 -80 65 -29 39 -39 45 -92 55 -55 11 -60 14 -60
39 -1 15 -11 47 -24 71 -21 40 -29 46 -107 75 -84 31 -84 31 -121 96 -20 36
-41 73 -47 82 -9 13 -7 18 10 23 12 4 42 25 66 48 25 23 55 41 71 42 15 1 41
3 58 3 27 2 37 11 64 52 36 56 90 103 160 140 26 14 65 38 85 54 l37 30 64
-18 65 -17 39 31 c21 16 82 47 135 67 87 33 101 42 132 84 34 45 37 47 77 42
22 -2 49 -6 59 -8 14 -3 24 10 44 56 l26 59 64 0 c57 0 153 16 153 26 0 2 -28
59 -62 127 l-61 124 -62 12 c-72 15 -131 6 -145 -20 -6 -10 -16 -16 -23 -13
-7 2 -31 -10 -52 -29 -68 -57 -100 -75 -151 -88 -27 -7 -73 -23 -103 -36 -30
-13 -73 -23 -99 -23 -40 0 -51 -5 -87 -40 -31 -31 -52 -42 -95 -50 -30 -6 -58
-16 -62 -23 -4 -6 -18 -30 -30 -52 -22 -37 -30 -41 -123 -70 l-99 -31 -24 -54
c-13 -30 -25 -56 -27 -58 -2 -2 -35 13 -74 32 -39 20 -73 36 -75 36 -3 0 -15
-31 -27 -69 l-22 -68 -42 13 c-35 10 -45 10 -56 -1 -8 -7 -53 -15 -109 -19
l-95 -6 61 32 62 33 -20 26 -20 27 30 44 c39 57 50 134 28 197 -26 70 -20 147
14 211 27 49 30 64 30 146 0 58 6 108 16 135 8 24 20 70 25 102 9 55 8 59 -24
110 -31 48 -33 55 -20 73 9 13 12 31 8 56 -4 23 -1 46 8 65 9 16 18 60 22 98
4 41 17 89 30 115 l23 45 -50 51 -50 52 26 49 27 49 -21 83 c-14 55 -20 97
-16 125 3 22 9 75 12 117 l6 76 -98 6 c-55 4 -137 7 -183 7 l-83 0 8 -27z
m460 -2282 l69 -63 -45 5 c-25 3 -54 6 -66 6 -17 1 -22 11 -30 61 -6 33 -7 59
-3 58 3 -2 37 -32 75 -67z"/>
<path d="M5309 2526 c-2 -2 -40 -6 -83 -10 -69 -5 -87 -11 -132 -41 l-53 -34
-105 31 -105 30 -50 -36 c-67 -49 -126 -56 -236 -27 l-80 20 -61 -60 c-51 -51
-70 -62 -115 -72 -51 -12 -56 -16 -81 -63 -25 -46 -33 -53 -75 -64 -27 -6 -68
-24 -91 -38 -38 -24 -50 -41 -93 -131 -36 -75 -65 -121 -104 -162 -60 -62 -61
-66 -44 -167 10 -63 9 -74 -21 -177 l-32 -110 55 -50 54 -50 -8 -45 c-5 -25
-20 -70 -35 -102 l-27 -56 33 -53 c28 -46 31 -58 24 -89 -8 -31 -3 -46 50
-150 63 -124 73 -135 185 -212 89 -61 151 -116 151 -134 0 -7 5 -35 11 -63 9
-44 16 -53 54 -76 24 -14 77 -56 118 -94 l74 -68 95 -2 c72 -2 106 3 142 17
45 17 52 17 94 3 42 -13 52 -13 111 2 64 17 65 17 87 -4 21 -20 26 -20 54 -9
27 11 36 10 68 -7 33 -17 50 -19 142 -14 l105 6 50 75 c28 42 69 92 91 113 38
34 46 37 103 37 60 0 63 1 100 42 l39 42 -5 73 -6 73 71 0 71 0 24 54 c19 40
37 62 68 82 l43 27 -97 94 c-53 52 -97 95 -97 97 0 1 43 0 95 -2 l95 -4 0 54
c0 43 -6 64 -30 101 -16 26 -30 52 -30 58 0 6 16 30 36 54 66 81 84 221 40
315 -23 48 -23 53 -9 98 10 33 13 71 9 127 -3 44 -6 88 -6 97 0 10 -35 42 -80
75 -73 52 -82 64 -103 117 -18 49 -30 63 -72 91 -27 18 -61 44 -75 59 -16 17
-52 35 -106 52 -72 22 -84 30 -95 56 -7 17 -24 34 -39 40 -17 5 -49 39 -84 88
-53 74 -65 86 -77 76z m-139 -328 c10 -39 20 -53 56 -75 24 -16 44 -31 44 -35
0 -5 12 -8 28 -8 40 0 50 -10 72 -75 14 -39 35 -75 63 -103 l42 -43 72 5 73 6
35 -47 c26 -36 34 -55 31 -75 -4 -22 -1 -27 17 -30 27 -4 34 -33 36 -137 1
-70 -1 -76 -35 -124 l-36 -50 21 -51 c11 -28 21 -55 21 -60 0 -5 -16 -29 -36
-53 -34 -42 -36 -48 -32 -102 3 -38 11 -68 26 -88 27 -38 27 -43 3 -43 -31 0
-72 -62 -121 -183 l-45 -110 -52 -19 c-61 -22 -104 -74 -130 -154 -15 -49 -19
-53 -59 -63 -71 -18 -139 -13 -205 14 -33 14 -63 24 -68 21 -4 -3 -51 -14
-105 -25 l-98 -20 -38 25 c-33 22 -42 24 -81 15 -24 -5 -44 -9 -44 -8 -1 1
-16 26 -33 55 -18 28 -30 52 -28 52 2 0 20 -7 41 -16 20 -8 34 -11 31 -5 -4 5
-29 17 -57 26 -40 14 -58 27 -87 67 l-37 50 -77 -6 c-90 -6 -86 -11 -63 94 23
105 26 100 -59 100 -70 0 -76 2 -94 28 -15 22 -17 33 -9 56 6 20 6 45 -2 82
-10 44 -9 72 4 159 13 83 15 120 7 168 -6 34 -8 83 -5 109 3 33 -1 59 -16 92
-11 25 -16 46 -11 46 5 0 16 26 25 57 9 31 28 79 41 105 l25 49 75 -7 75 -7
-2 79 -2 79 49 7 c90 12 184 31 184 37 0 3 -5 23 -11 44 -15 53 -5 56 22 7 19
-33 28 -40 44 -35 11 3 58 14 104 25 80 20 85 20 137 3 l55 -17 52 51 c67 67
140 123 148 115 3 -4 12 -28 19 -54z m635 -1198 c18 -20 17 -20 -37 -20 -39 0
-57 4 -61 14 -12 31 71 36 98 6z"/>
</g>
</svg>
