<svg width="512" height="512" viewBox="0 0 512 512" xmlns="http://www.w3.org/2000/svg" role="img" aria-label="klo logo">
  <defs>
    <linearGradient id="glow" x1="104" y1="84" x2="420" y2="440" gradientUnits="userSpaceOnUse">
      <stop stop-color="#f7fbff"/>
      <stop offset="0.45" stop-color="#d7e7ff"/>
      <stop offset="1" stop-color="#8fb7ff"/>
    </linearGradient>
  </defs>
  <rect width="512" height="512" rx="118" fill="#0627ff"/>
  <path fill="url(#glow)" d="M104 144h19l-3 14 6 14-8 14 8 15-7 15 7 15-8 17 6 17-5 19v64l-8 29 6 29-11 20h23l11-18-5-30 11-42 17 13 28 7 12 28 29 7 33 29 14-11-9-24-43-8-31-28-8-30-35-13-9-21 20 4 25-23 25-7 24-23 30-8 26-20 27-3 9 21-20 4-25 18-31 9-23 18-25-6-25 13-19 23-22 5-17-28-13 5 9-28V144Zm162-6h24l-2 15 5 15-8 17 10 13-15 14 14 12-15 16 10 14-15 16 16 13-8 20 8 20-8 21 11 19-9 20 8 21-10 22 8 20h-27l-8-22 8-21-8-21 8-20-12-19 12-19-2-86-8-13 10-19-9-14 7-16-3-15 9-20Zm118 86 18 7 18-2 16-8 23 5 14 17 21 12 7 25-6 29-17 24 21 14-22 5-8 22-29 2-27 12-31-4-20-18h-24l7-22h-19l-12-24-4-31 12-29 23-13 22-3 16-24Zm-18 62-12 19 5 34 26 8 27-6 15-18 1-27-18-21-25-2-19 13Z"/>
</svg>
